HIERARCHY
ROOT root
{
	OFFSET 0.000000 0.000000 0.000000
	CHANNELS 6 Xposition Yposition Zposition Zrotation Yrotation Xrotation
	JOINT lhip
	{
		OFFSET 0.058581 -0.082280 -0.017664
		CHANNELS 3 Zrotation Yrotation Xrotation
		JOINT lknee
		{
			OFFSET 0.043451 -0.386469 0.008037
			CHANNELS 3 Zrotation Yrotation Xrotation
			JOINT lankle
			{
				OFFSET -0.014790 -0.426874 -0.037428
				CHANNELS 3 Zrotation Yrotation Xrotation
				JOINT ltoe
				{
					OFFSET 0.041054 -0.060286 0.122042
					CHANNELS 3 Zrotation Yrotation Xrotation
					End Site
					{
						OFFSET 0.000000 0.000000 0.000000
					}
				}
			}
		}
	}
	JOINT rhip
	{
		OFFSET -0.060310 -0.090513 -0.013543
		CHANNELS 3 Zrotation Yrotation Xrotation
		JOINT rknee
		{
			OFFSET -0.043257 -0.383688 -0.004843
			CHANNELS 3 Zrotation Yrotation Xrotation
			JOINT rankle
			{
				OFFSET 0.019056 -0.420046 -0.034562
				CHANNELS 3 Zrotation Yrotation Xrotation
				JOINT rtoe
				{
					OFFSET -0.034840 -0.062106 0.130323
					CHANNELS 3 Zrotation Yrotation Xrotation
					End Site
					{
						OFFSET 0.000000 0.000000 0.000000
					}
				}
			}
		}
	}
	JOINT lowerback
	{
		OFFSET 0.004439 0.124404 -0.038385
		CHANNELS 3 Zrotation Yrotation Xrotation
		JOINT upperback
		{
			OFFSET 0.004488 0.137956 0.026820
			CHANNELS 3 Zrotation Yrotation Xrotation
			JOINT chest
			{
				OFFSET -0.002265 0.056032 0.002855
				CHANNELS 3 Zrotation Yrotation Xrotation
				JOINT lowerneck
				{
					OFFSET -0.013390 0.211636 -0.033468
					CHANNELS 3 Zrotation Yrotation Xrotation
					JOINT upperneck
					{
						OFFSET 0.010113 0.088937 0.050410
						CHANNELS 3 Zrotation Yrotation Xrotation
						End Site
						{
							OFFSET 0.000000 0.000000 0.000000
						}
					}
				}
				JOINT lclavicle
				{
					OFFSET 0.071702 0.114000 -0.018898
					CHANNELS 3 Zrotation Yrotation Xrotation
					JOINT lshoulder
					{
						OFFSET 0.122921 0.045205 -0.019046
						CHANNELS 3 Zrotation Yrotation Xrotation
						JOINT lelbow
						{
							OFFSET 0.255332 -0.015649 -0.022946
							CHANNELS 3 Zrotation Yrotation Xrotation
							JOINT lwrist
							{
								OFFSET 0.265709 0.012698 -0.007375
								CHANNELS 3 Zrotation Yrotation Xrotation
								End Site
								{
									OFFSET 0.000000 0.000000 0.000000
								}
							}
						}
					}
				}
				JOINT rclavicle
				{
					OFFSET -0.082954 0.112472 -0.023707
					CHANNELS 3 Zrotation Yrotation Xrotation
					JOINT rshoulder
					{
						OFFSET -0.113228 0.046853 -0.008472
						CHANNELS 3 Zrotation Yrotation Xrotation
						JOINT relbow
						{
							OFFSET -0.260127 -0.014369 -0.031269
							CHANNELS 3 Zrotation Yrotation Xrotation
							JOINT rwrist
							{
								OFFSET -0.269108 0.006794 -0.006027
								CHANNELS 3 Zrotation Yrotation Xrotation
								End Site
								{
									OFFSET 0.000000 0.000000 0.000000
								}
							}
						}
					}
				}
			}
		}
	}
}
MOTION
Frames: 5
Frame Time: 0.033333
-0.553070 -0.400738 1.701108 -178.748977 0.567445 118.256800 -0.391723 -2.006260 -15.098771 -4.921490 -2.197237 16.211921 1.812906 6.092912 -30.367571 0.000000 -0.000000 0.000000 2.330152 2.981552 -17.126009 -1.333339 -3.474138 20.275775 2.824835 -3.831917 -34.033440 0.000000 -0.000000 0.000000 1.126942 -0.833693 23.271893 -0.028349 -4.150400 -0.595684 -1.248424 -2.254094 5.370527 6.148712 -13.121001 -22.286214 10.474498 -26.669665 -11.509907 -10.942392 -3.953577 -4.369031 -62.311110 -11.541257 17.384835 2.461710 -57.071868 33.269308 16.489057 -22.822538 -0.522532 9.333379 8.929763 -6.401800 70.156236 12.921283 21.417250 -4.161823 54.919204 28.710775 -16.951273 17.312357 4.438303 
-0.552510 -0.399775 1.700735 -179.029791 0.636383 118.100324 -0.423709 -1.778198 -14.811062 -5.139332 -2.128528 15.972892 1.572537 6.419479 -30.393453 0.000000 -0.000000 0.000000 2.499088 2.939916 -17.073956 -1.724284 -3.482300 20.443147 3.221785 -3.214938 -34.221979 0.000000 -0.000000 0.000000 0.952848 -0.471217 23.190252 0.301961 -4.061943 -0.540730 -1.274529 -1.721893 5.026677 5.474831 -9.946509 -20.235607 9.390379 -24.489675 -13.601321 -11.775405 -4.442478 -4.229774 -61.531403 -11.872929 17.963586 2.199863 -56.041864 33.317434 17.459909 -22.540831 -1.178082 9.922066 8.087725 -6.467748 69.473561 12.786219 21.332077 -3.509007 54.645656 28.951553 -15.425494 17.106472 5.394628 
-0.556386 -0.400723 1.700009 -177.986319 0.265383 118.162041 -0.500145 -2.673872 -15.110165 -5.107609 -1.625300 16.189342 1.673811 6.021997 -30.713242 0.000000 -0.000000 0.000000 2.017308 2.265845 -17.075076 -1.072669 -4.401189 20.245452 3.394859 -3.338213 -34.668630 0.000000 -0.000000 0.000000 2.408156 -0.947149 22.844188 0.132672 -4.643850 -0.496632 -1.757485 -1.931662 5.237477 4.435276 -7.524055 -19.732508 8.118518 -21.839692 -13.660873 -11.817988 -4.480121 -4.448321 -62.494663 -12.423419 18.259365 2.929827 -54.997977 32.940341 17.996665 -23.410853 -1.509952 9.836783 7.378439 -6.771741 69.231457 13.099184 21.601067 -3.175231 54.355608 28.961122 -15.770871 17.832542 5.378970 
-0.551272 -0.399262 1.697735 -178.985038 1.028206 117.902037 0.560673 -1.701932 -14.296893 -6.099799 -1.282772 15.734689 1.484691 6.065500 -31.234512 0.000000 -0.000000 0.000000 3.062621 3.355677 -16.496464 -1.719363 -3.214090 20.145215 2.940159 -3.701674 -35.071008 0.000000 -0.000000 0.000000 0.745193 -0.769574 22.441478 0.432415 -4.117418 0.208377 -0.962870 -1.239705 5.234497 3.306842 -4.239044 -19.232805 7.601624 -19.183729 -13.977113 -11.235042 -4.342327 -4.463039 -62.246413 -11.486585 17.880998 2.540438 -56.431200 33.755512 17.621887 -22.727012 -1.775730 9.883387 7.646663 -6.191713 69.430102 13.331084 21.636357 -3.551599 54.933187 29.425996 -15.325401 17.312332 5.113922 
-0.552073 -0.400297 1.696514 -179.182630 1.148943 117.849743 -0.282029 -2.275817 -14.556415 -4.920592 -2.060620 16.611237 1.583773 7.645899 -32.128204 0.000000 -0.000000 0.000000 3.005698 3.486923 -16.608650 -1.713930 -3.312797 20.599439 3.132026 -3.615033 -35.761992 0.000000 -0.000000 0.000000 0.744170 -0.605807 22.531013 0.149321 -4.073698 0.024382 -0.899481 -1.060486 5.547482 2.624330 -1.312755 -19.303893 6.713564 -16.449161 -13.830116 -10.490620 -4.119706 -4.893399 -62.763493 -11.238184 17.996244 1.843250 -57.156095 34.404079 18.198792 -22.239062 -1.973079 10.046722 7.156940 -6.158320 69.130593 13.282455 21.725594 -3.279157 55.908859 29.948103 -15.321554 17.110209 4.922416 
